HIERARCHY
ROOT RootJoint
{
    OFFSET   0.000000   0.000000   0.000000
    CHANNELS 6 Xposition Yposition Zposition Xrotation Yrotation Zrotation
    JOINT pelvis_lowerback
    {
        OFFSET   0.000000   0.093605   0.000000
        CHANNELS 3 Xrotation Yrotation Zrotation
        JOINT lowerback_torso
        {
            OFFSET   0.000000   0.100000   0.000000
            CHANNELS 3 Xrotation Yrotation Zrotation
            JOINT torso_head
            {
                OFFSET   0.000000   0.282350   0.000000
                CHANNELS 3 Xrotation Yrotation Zrotation
                End Site
                {
                    OFFSET   0.000000   0.192650   0.000000
                }
            }
            JOINT rTorso_Clavicle
            {
                OFFSET  -0.001000   0.157500   0.000000
                CHANNELS 3 Xrotation Yrotation Zrotation
                JOINT rShoulder
                {
                    OFFSET  -0.117647   0.000000   0.000000
                    CHANNELS 3 Xrotation Yrotation Zrotation
                    JOINT rElbow
                    {
                        OFFSET  -0.245000   0.000000   0.000000
                        CHANNELS 3 Xrotation Yrotation Zrotation
                        JOINT rWrist
                        {
                            OFFSET  -0.240000   0.000000   0.000000
                            CHANNELS 3 Xrotation Yrotation Zrotation
                            End Site
                            {
                                OFFSET  -0.116353  -0.002500   0.000000
                            }
                        }
                    }
                }
            }
            JOINT lTorso_Clavicle
            {
                OFFSET   0.001000   0.157500   0.000000
                CHANNELS 3 Xrotation Yrotation Zrotation
                JOINT lShoulder
                {
                    OFFSET   0.117647   0.000000   0.000000
                    CHANNELS 3 Xrotation Yrotation Zrotation
                    JOINT lElbow
                    {
                        OFFSET   0.245000   0.000000   0.000000
                        CHANNELS 3 Xrotation Yrotation Zrotation
                        JOINT lWrist
                        {
                            OFFSET   0.240000   0.000000   0.000000
                            CHANNELS 3 Xrotation Yrotation Zrotation
                            End Site
                            {
                                OFFSET   0.116353  -0.002500   0.000000
                            }
                        }
                    }
                }
            }
        }
    }
    JOINT rHip
    {
        OFFSET  -0.100000  -0.051395   0.000000
        CHANNELS 3 Xrotation Yrotation Zrotation
        JOINT rKnee
        {
            OFFSET   0.000000  -0.410000   0.000000
            CHANNELS 3 Xrotation Yrotation Zrotation
            JOINT rAnkle
            {
                OFFSET   0.000000  -0.390000   0.000000
                CHANNELS 3 Xrotation Yrotation Zrotation
                JOINT rToeJoint
                {
                    OFFSET   0.000000  -0.050000   0.130000
                    CHANNELS 3 Xrotation Yrotation Zrotation
                    End Site
                    {
                        OFFSET  -0.010000   0.002000   0.060000
                    }
                }
            }
        }
    }
    JOINT lHip
    {
        OFFSET   0.100000  -0.051395   0.000000
        CHANNELS 3 Xrotation Yrotation Zrotation
        JOINT lKnee
        {
            OFFSET   0.000000  -0.410000   0.000000
            CHANNELS 3 Xrotation Yrotation Zrotation
            JOINT lAnkle
            {
                OFFSET   0.000000  -0.390000   0.000000
                CHANNELS 3 Xrotation Yrotation Zrotation
                JOINT lToeJoint
                {
                    OFFSET   0.000000  -0.050000   0.130000
                    CHANNELS 3 Xrotation Yrotation Zrotation
                    End Site
                    {
                        OFFSET   0.010000   0.002000   0.060000
                    }
                }
            }
        }
    }
}
MOTION
Frames: 8
Frame Time:   0.008333
 -2.376719   0.925631   3.975860   0.000000   0.000000   0.000000   0.000000   0.000000   0.000000   0.000000   0.000000   0.000000   0.000000   0.000000   0.000000   0.000000   0.000000   0.000000   0.000000   0.000000   0.000000   0.000000   0.000000   0.000000   0.000000   0.000000   0.000000   0.000000   0.000000   0.000000   0.000000   0.000000   0.000000   0.000000   0.000000   0.000000   0.000000   0.000000   0.000000   0.000000   0.000000   0.000000   0.000000   0.000000   0.000000   0.000000   0.000000   0.000000   0.000000   0.000000   0.000000   0.000000   0.000000   0.000000   0.000000   0.000000   0.000000   0.000000   0.000000   0.000000   0.000000   0.000000   0.000000
 -2.375106   0.925654   3.972052   1.404045  -0.515946   0.457363  -1.097929   0.543179  -0.281773   0.421756  -0.096621   0.042587  -0.777855   0.392030  -0.450800   0.246759  -0.418482   0.849727  -0.214583  -0.131298   0.914453   0.051061   2.943594  -0.020562  -0.072261  -1.109960  -2.555206  -0.044483   0.301395   0.561218   1.062248   1.129771  -1.965981   0.040041  -3.708055   0.056688  -0.135560   0.667575   0.781537  -3.140729  -0.317079  -0.920311   3.508875   0.013845  -0.026912  -1.890704  -0.410521   0.685116   0.143465  -0.000243  -0.001585  -2.795733   0.152550  -0.672416   2.317164   0.004614  -0.007941   0.979933  -0.264154  -0.008057   0.386194   0.000819  -0.002207
 -2.372474   0.926059   3.967007   2.748403  -0.849393   1.042319  -1.901686   1.039967  -0.513243   0.997911  -0.178181   0.159656  -1.486631   0.771099  -0.931300   0.485484  -0.743471   2.298197  -0.427748  -0.162058   2.244157   0.123817   5.791565  -0.046244  -0.122858  -1.414940  -4.667165  -0.074615   0.555544   0.711826   2.099412   2.085268  -4.136227   0.091825  -7.464817   0.113881  -0.219113   0.459680   1.045337  -6.365778  -0.614170  -2.281260   7.244542   0.033327  -0.049046  -3.635760  -0.836335   1.302453   0.292434   0.000027  -0.002813  -5.697223   0.476409  -1.390076   4.634617   0.006992  -0.008705   1.531970  -0.326528   0.133727  -3.019142  -0.000586   0.003384
 -2.368975   0.926437   3.961148   4.077523  -1.093297   1.616622  -2.516758   1.542590  -0.568569   1.661186  -0.216258   0.399230  -2.118989   1.130958  -1.393051   0.713010  -0.933009   4.062697  -0.635073  -0.112505   3.794244   0.199663   8.481157  -0.071821  -0.157272  -1.424963  -6.105174  -0.103312   0.716914   0.579869   3.102992   2.864915  -6.384100   0.139322 -11.007033   0.161861  -0.291567  -0.084621   0.879028  -9.616688  -0.809394  -3.880849  10.983223   0.054626  -0.067593  -5.257511  -1.255801   1.862876   0.441181   0.000616  -0.003723  -8.662234   0.743248  -2.097673   6.821220   0.009055  -0.009995   2.155502  -0.480203   0.206244  -5.139196  -0.003403   0.008172
 -2.364795   0.926509   3.954745   5.424743  -1.228602   2.152079  -3.004690   2.041018  -0.449654   2.358770  -0.213775   0.770333  -2.690739   1.471462  -1.821558   0.924297  -1.004877   5.987320  -0.835137   0.000597   5.449660   0.269459  11.014221  -0.095236  -0.178004  -1.278657  -7.012572  -0.133749   0.801416   0.285779   4.070598   3.495024  -8.623921   0.176380 -14.335519   0.199494  -0.363578  -0.765668   0.421956 -12.836977  -0.896058  -5.649325  14.543390   0.074806  -0.081639  -6.766172  -1.665756   2.371533   0.580418   0.001341  -0.004270 -11.713676   1.000262  -2.789521   8.845159   0.011062  -0.010359   2.821710  -0.660854   0.246460  -6.287270  -0.005190   0.009346
 -2.360114   0.926080   3.947985   6.803756  -1.240788   2.643944  -3.403326   2.533275  -0.175995   3.058158  -0.171994   1.262557  -3.211962   1.793096  -2.214341   1.113698  -0.983410   7.976254  -1.028693   0.159435   7.139167   0.328851  13.395419  -0.115598  -0.187636  -1.035248  -7.538066  -0.168346   0.830640  -0.084094   4.998159   4.002756 -10.796204   0.201150 -17.458738   0.226939  -0.439474  -1.517630  -0.204113 -16.000667  -0.868644  -7.552151  17.874583   0.092691  -0.091136  -8.171586  -2.063628   2.833169   0.704208   0.002049  -0.004462 -14.859267   1.271520  -3.470356  10.703500   0.013025  -0.009423   3.508971  -0.849843   0.267034  -6.680490  -0.005220   0.008201
 -2.355090   0.925008   3.941010   8.216947  -1.124353   3.091485  -3.739279   3.021402   0.231472   3.739263  -0.089555   1.860950  -3.689168   2.096576  -2.572221   1.277204  -0.891762   9.968813  -1.216908   0.348538   8.818075   0.376257  15.630357  -0.132585  -0.189842  -0.732993  -7.793840  -0.207905   0.826933  -0.471781   5.882453   4.415892 -12.863699   0.214073 -20.384828   0.244868  -0.521368  -2.301474  -0.910048 -19.094748  -0.723826  -9.565805  20.989235   0.108113  -0.096719  -9.481732  -2.447474   3.252238   0.812259   0.002661  -0.004382 -18.094712   1.569343  -4.145254  12.402113   0.014882  -0.007370   4.203458  -1.040218   0.274254  -6.482747  -0.003572   0.006336
 -2.350525   0.922608   3.932945   9.200319  -1.026936   3.819527  -3.180560   3.365512   0.107265   4.322079   0.168272   2.515330  -4.161665   2.194465  -2.822945   0.947581  -0.618379  11.600687  -1.864892   0.711156  10.251605   0.398465  17.854277  -0.135861  -0.345500  -0.720681  -6.752322  -0.371203   0.986885  -0.590935   6.602021   4.621424 -14.513681   0.217715 -23.496450   0.265213  -0.675463  -2.800635  -1.735103 -21.902898  -0.593030 -11.939056  24.139371   0.119422  -0.111292 -10.269772  -2.993958   3.794271   1.024951   0.003999  -0.006025 -21.603625   1.772794  -4.927234  15.936096   0.015168  -0.014169   2.785005  -1.130190   0.543625  -5.598749  -0.003761   0.002430
